$MeshFormat
2.2 0 8
$EndMeshFormat
$PhysicalNames
7
2 9 "shell_inlet"
2 10 "shell_wall"
2 11 "shell_outlet"
2 12 "tube_outlet"
2 13 "tube_inlet"
3 1 "shell_fluid"
3 2 "pipe_fluid"
$EndPhysicalNames
$Nodes
276
1 5 4.898587196589413e-17 0.2
2 0 4.898587196589413e-17 0.2
3 5 2.449293598294706e-16 1
4 0 2.449293598294706e-16 1
5 5 -0.156366296493606 0.1246979603717467
6 5 -0.1949855824363648 -0.04450418679126265
7 5 -0.08677674782351197 -0.1801937735804837
8 5 0.08677674782351097 -0.1801937735804842
9 5 0.1949855824363645 -0.04450418679126396
10 5 0.1563662964936068 0.1246979603717457
11 0.5555555555555547 4.898587196589413e-17 0.2
12 1.111111111111109 4.898587196589413e-17 0.2
13 1.666666666666666 4.898587196589413e-17 0.2
14 2.222222222222222 4.898587196589413e-17 0.2
15 2.777777777777779 4.898587196589413e-17 0.2
16 3.333333333333335 4.898587196589413e-17 0.2
17 3.888888888888892 4.898587196589413e-17 0.2
18 4.444444444444448 4.898587196589413e-17 0.2
19 0 -0.156366296493606 0.1246979603717467
20 0 -0.1949855824363648 -0.04450418679126265
21 0 -0.08677674782351197 -0.1801937735804837
22 0 0.08677674782351097 -0.1801937735804842
23 0 0.1949855824363645 -0.04450418679126396
24 0 0.1563662964936068 0.1246979603717457
25 5 -0.5406408174555971 0.8412535328311814
26 5 -0.9096319953545181 0.415415013001887
27 5 -0.9898214418809328 -0.1423148382732846
28 5 -0.7557495743542589 -0.6548607339452843
29 5 -0.2817325568414305 -0.9594929736144971
30 5 0.281732556841429 -0.9594929736144976
31 5 0.7557495743542578 -0.6548607339452855
32 5 0.9898214418809326 -0.1423148382732861
33 5 0.9096319953545189 0.4154150130018852
34 5 0.5406408174555982 0.8412535328311808
35 0.5555555555555547 2.449293598294706e-16 1
36 1.111111111111109 2.449293598294706e-16 1
37 1.666666666666666 2.449293598294706e-16 1
38 2.222222222222222 2.449293598294706e-16 1
39 2.777777777777779 2.449293598294706e-16 1
40 3.333333333333335 2.449293598294706e-16 1
41 3.888888888888892 2.449293598294706e-16 1
42 4.444444444444448 2.449293598294706e-16 1
43 0 -0.5406408174555971 0.8412535328311814
44 0 -0.9096319953545181 0.415415013001887
45 0 -0.9898214418809328 -0.1423148382732846
46 0 -0.7557495743542589 -0.6548607339452843
47 0 -0.2817325568414305 -0.9594929736144971
48 0 0.281732556841429 -0.9594929736144976
49 0 0.7557495743542578 -0.6548607339452855
50 0 0.9898214418809326 -0.1423148382732861
51 0 0.9096319953545189 0.4154150130018852
52 0 0.5406408174555982 0.8412535328311808
53 2.544828135840155 0.1308736367875373 -0.1512352181008239
54 1.436559349165504 0.1336420972693226 -0.1487944549956648
55 3.611111111111113 -0.1342607690874335 -0.1482364526155792
56 1.805148398120936 0.09827209191650858 -0.1741912625545647
57 3.159975033105855 0.1169871408139099 -0.1622159328925073
58 0.9624624712448147 0.126512716732248 -0.1549016865790234
59 0.1512793151343703 -0.003027368451897605 -0.1999770862880457
60 0.5499843432201049 0.1604595088738608 -0.119384865087495
61 0.1489910241709226 0.194985582436365 0.04450418679126163
62 4.166666666666671 0.1342607690874349 -0.148236452615578
63 4.856554043089392 0.02615993164391472 -0.1982817641044827
64 4.851008975829096 -0.1949855824363647 0.04450418679126298
65 0.1489910241709037 -0.1949855824363647 0.04450418679126298
66 4.767785233278429 0.1957854302819087 0.04084195501353813
67 2.098084426140495 0.1931081632820789 -0.05205033404140598
68 4.328356673118933 -0.1455443993378351 -0.137174443032909
69 4.475172787719668 0.1901516871827036 -0.06198657807599357
70 0.1520559164981235 0.1521335518332446 -0.1298282804576933
71 0.3325486925899381 0.08477392532137257 -0.1811446427184816
72 0.3655970626360334 0.1999026969050718 -0.006237929951433786
73 0.3043814871801336 -0.1137976334713637 -0.1644691418361426
74 0.6976139914122468 -0.1430359701309941 -0.139788094087749
75 2.896091252641959 0.1995792133016553 0.01296678903554697
76 2.821293001719981 -0.01276098849601476 -0.1995924777455418
77 2.53556960573111 -0.1475591417461812 -0.135004813570222
78 2.099638393255514 -0.1724211793584651 -0.1013456309301788
79 3.02680127904679 -0.1925727593457429 -0.05399752177615735
80 4.833941080143007 -0.1448535384088807 -0.1379037795364106
81 4.847944083501884 0.1604261144487892 -0.1194297358402169
82 4.674923373895837 0.06291355554979335 -0.1898470029473288
83 2.236071228875192 0.03063320620111987 -0.1976400938014341
84 3.304716146918397 -0.1181284937965954 -0.1613866752657968
85 3.47143583639509 0.1664994839014704 -0.1108057844182514
86 3.832759545062261 0.1322002850777645 -0.1500769290242768
87 3.989421669410856 -0.1734887530483838 -0.09950704781932235
88 0.783860592507027 0.1940408490581809 0.04845770214094204
89 0.1326636936650392 -0.1444943174511175 -0.1382801223037341
90 2.028755275124034 0.02600865371958005 -0.1983016639660267
91 1.84277441116546 -0.1440239986387334 -0.1387699096206023
92 1.573398847516072 -0.07564771911682698 -0.1851416284697249
93 1.60444053812294 0.1315548381576776 -0.1506430368696385
94 1.310360309476667 -0.1222958997851736 -0.1582520549494849
95 1.176501277657259 0.1146604584472289 -0.163868786743148
96 1.033768827619077 -0.1135348594436536 -0.1646506474056808
97 0.7571247176228362 0.07361645542486105 -0.1859586445709891
98 2.306717888708055 0.1815394547564677 -0.08392512357288746
99 2.519393777337335 0.1823594204263512 0.08212820332726933
100 0.5193271251773449 -0.03319812491843929 -0.1972254661596714
101 0.4530787098175937 -0.1975888524596873 -0.030961999025643
102 4.61742324036314 -0.1884451490414277 -0.0669957148088898
103 1.838064467950773 0.1847389219111878 0.07662591422679436
104 2.773567701935689 -0.1995106974529053 -0.01398147352231812
105 1.509170767976548 0.1824791250107648 0.08186188939491734
106 5 -7.93016446160826e-17 -2.934160850795057e-16
107 0 -7.93016446160826e-17 -2.934160850795057e-16
108 2.5 0.4669963194842468 0.8842592592606352
109 2.500174107342489 -0.4673487501156335 0.8840730432296616
110 0.5235959311097819 -0.08836253353083957 -0.9960883809522182
111 4.477036073112028 -0.09098714860890184 -0.995852066718758
112 1.382340266988115 -0.4669984132312239 0.8842581535046873
113 1.393054699673395 0.4774765106460278 0.8786445138856178
114 3.604906295318511 0.487706333071926 0.8730077506423042
115 3.611111111111113 -0.4669963194866165 0.8842592592593838
116 4.505428607183465 -0.9191400905009427 -0.3939308239195288
117 0.4829211426730395 -0.9164288071631571 -0.4001977528691446
118 0.4989409507708982 0.8961580101868445 -0.4437350794989682
119 4.523701568075543 0.9023135066444555 -0.4310804283738547
120 0.4869492824039934 -0.8006724908052731 0.5991022971644157
121 4.500651083433587 -0.7854067234996943 0.6189800309230296
122 0.4474950551445451 0.7395367550338523 0.6731161771596341
123 4.553490219846092 0.73997428333268 0.67263516114331
124 1.942940067672235 -0.4676063248935963 0.8839368331048912
125 2.221962159117324 -0.8270529011196348 0.5621240955070291
126 2.779507778519113 -0.8268064099384734 0.5624865869375492
127 2.501541906753034 -0.9941039847778309 0.1084309340033462
128 1.942433257642214 -0.9941434314012446 0.1080686716942466
129 2.222685476676722 -0.9281737875651747 -0.3721470409353245
130 2.782355219646917 -0.9285335756075783 -0.3712484329521212
131 1.662353890437341 -0.9281805487134164 -0.3721301774783406
132 1.942860565798749 -0.6434142011605029 -0.7655182334503809
133 1.382238958412788 -0.6431612638705401 -0.7657307546758518
134 1.662360796798187 -0.2065486428483317 -0.9784363332059538
135 2.223512316963158 -0.2067918932218621 -0.9783849512833473
136 1.94313274808344 0.2789050546558515 -0.9603186817340463
137 2.504173478015281 0.2786016376106252 -0.9604067510803315
138 2.224127271575838 0.6986118601861263 -0.7155008517166701
139 2.784954338643431 0.6983659798788374 -0.715740845661243
140 3.065508191965058 0.2781233470909093 -0.9605453679045824
141 1.663054755854116 0.6987049405763184 -0.7154099566082677
142 1.94352262938552 0.9533150629221779 -0.3019774673807368
143 3.366460192882834 0.7080578732206593 -0.7061544081645578
144 3.069112374117413 0.9539230039068175 -0.3000514999419165
145 1.382315495686348 -0.9940561923822954 0.1088682064994777
146 1.399227481698628 0.9561754528326167 -0.2927943021992406
147 3.628756253072624 0.955254033036087 -0.2957866331805587
148 3.627164925203386 0.277665350571188 -0.9606778612480769
149 3.345963197156763 -0.208386200817716 -0.9780466202123284
150 1.666223064100264 0.9853223279830887 0.1707041592287266
151 2.224712614566864 0.9859325974955816 0.167143391121562
152 3.347444803911961 0.9853595791603731 0.1704890018649075
153 1.122807430035506 0.9859448697964213 0.1670709840819702
154 3.887770034287146 0.9860750872370225 0.1663006985267904
155 1.033497199287932 0.7194168535445873 -0.6945785706714582
156 1.944282199711798 0.7789867683048898 0.6270403613850579
157 3.894747934558399 -0.1903561796150202 -0.9817150935390442
158 3.621795476144234 -0.6446154746312228 -0.7645069586772663
159 1.109788381310911 -0.186202685644036 -0.9825113535521859
160 2.786001484647838 0.9863032589098008 0.1649420548674795
161 3.066445323467526 0.7820234582735236 0.6232489957552426
162 2.503456427968039 0.9534604960389697 -0.3015179637983814
163 1.383010529778679 0.2875364466439217 -0.9577696966658462
164 2.7847770059757 -0.2076239192628578 -0.9782087242250144
165 3.064746956652717 -0.6454861505838827 -0.7637719747440339
166 3.344479025308272 -0.9293253492977972 -0.3692619600670062
167 3.908790682898803 -0.9288323135389973 -0.3705003823557999
168 3.625724824413772 -0.9935364968477352 0.1135131244902117
169 4.181974504138243 -0.9923168309631288 0.1237227019883302
170 3.060447194494284 -0.9940069662302248 0.1093167465934875
171 3.338435070344135 -0.8259467821895996 0.5637480935583252
172 2.50348959028566 -0.6439586301715861 -0.7650603130652737
173 1.654058856608051 -0.8280295707732561 0.5606844298935518
174 3.05672319640466 -0.4673088420521048 0.8840941387317988
175 3.900409004475734 -0.8170522285229245 0.5765636615897006
176 0.8267197908480683 -0.6154477959469238 -0.788177651588824
177 1.088146681252613 -0.9240736207439898 -0.3822145254239991
178 0.8034155207600816 -0.993605849368051 0.1129044556321581
179 1.073650211741103 -0.8266438423209571 0.562725472990911
180 4.172513169419643 -0.620474308534693 -0.7842267736110484
181 4.446855271584837 0.9876668084469767 0.1565703531712275
182 0.5596597728450818 0.9879072202300374 0.1550462002674051
183 0.4860101209429602 0.5410844087356041 -0.8409682887144091
184 4.524589234630625 0.5253541991310531 -0.8508836380230671
185 3.982185780801395 0.7199415915383072 -0.6940346567523046
186 0.8554425665864487 -0.455346091084305 0.8903145159628949
187 4.144557433413552 -0.4553460910843048 0.890314515962895
188 0.8218905780185548 0.4419642462915732 0.8970326666292157
189 4.178687745782204 0.443696799020007 0.8961769638522291
190 0.8969186520051249 0.2782837829954002 -0.9604988995942521
191 4.113982376362653 0.2781128708540672 -0.9605484012090744
192 2.504288324478805 0.8505137755589652 0.5259527712489346
193 1.945245157654816 0.3665925314826057 0.9303815969059012
194 3.056492545979431 0.3696677828959007 0.9291639953683253
195 3.596692670458931 0.8602043839120769 0.509949426804702
196 1.411076429631055 0.8580099603034939 0.5136330480216367
197 4.625904575687357 -0.5406408174555986 -0.8412535328311805
198 0.9228265669276091 0.9712803386005241 -0.2379380252251652
199 0.3692854002328599 -0.5406408174555986 -0.8412535328311805
200 4.086128183575556 0.9695937742350902 -0.2447200706206031
201 0.9290147546343123 0.8214186691600901 0.5703256700826875
202 4.645338325348073 -0.9898214418809327 0.1423148382732858
203 4.076896895309515 0.823637491307922 0.5671166396007022
204 4.585412480571121 -0.40477249450018 0.9144174253020891
205 0.4145875194288777 -0.4047724945001801 0.9144174253020891
206 4.585412480571097 0.4047724945002236 0.9144174253020698
207 0.3965119794561725 0.3899052368113817 0.92085498657881
208 0.3415019765151788 -0.9909674623698301 0.1341025298952234
209 5 -9.319649473154394e-16 -0.3304955097263977
210 5 0.322209297283025 0.07354216949268429
211 5 -0.3222092972830246 0.07354216949268641
212 5 -0.1433966275216526 0.2977661652450257
213 5 0.1433966275216537 0.297766165245025
214 5 -0.258391794318417 -0.2060605798745125
215 5 0.2583917943184158 -0.2060605798745141
216 5 -0.4565925188188862 0.3808095111471721
217 5 0.4565925188188873 0.3808095111471704
218 5 -0.2921626850323822 -0.5426345957350486
219 5 0.2921626850323802 -0.5426345957350495
220 5 0.5195067581759715 -0.1018464907874799
221 5 -0.5195067581759719 -0.1018464907874777
222 5 8.278305597001354e-16 0.5243146474599811
223 5 -8.770761894538737e-16 -0.666950129685098
224 5 -0.5631264507523926 -0.3295434477231216
225 5 0.5631264507523916 -0.3295434477231229
226 5 0.228125992759228 0.6088287713366715
227 5 -0.228125992759227 0.6088287713366722
228 5 0.6395524023026671 0.1251210729161948
229 5 -0.6395524023026669 0.1251210729161966
230 0 -8.935575524176973e-16 -0.3304955097263977
231 0 0.322209297283025 0.07354216949268429
232 0 -0.3222092972830246 0.07354216949268649
233 0 -0.1433966275216528 0.2977661652450256
234 0 0.1433966275216536 0.297766165245025
235 0 -0.258391794318417 -0.2060605798745125
236 0 0.2583917943184157 -0.2060605798745141
237 0 -0.4565925188188862 0.380809511147172
238 0 0.4565925188188873 0.3808095111471704
239 0 -0.2921626850323822 -0.5426345957350485
240 0 0.2921626850323802 -0.5426345957350495
241 0 0.5195067581759715 -0.1018464907874799
242 0 -0.5195067581759719 -0.1018464907874777
243 0 8.217898071603314e-16 0.5155640327972835
244 0 -8.881784197001252e-16 -0.6669501296850981
245 0 -0.5631264507523926 -0.3295434477231215
246 0 0.5631264507523916 -0.3295434477231231
247 0 0.228125992759228 0.6070786484041321
248 0 -0.2281259927592271 0.6070786484041325
249 0 0.6395524023026671 0.1251210729161948
250 0 -0.6395524023026667 0.1251210729161966
251 0.3490164590092574 -0.04910818150493318 -0.5331738772929417
252 2.002259672565608 0.4109572012398662 -0.4405468558145078
253 1.647955360206074 0.09391690067681263 -0.6171958890420814
254 2.782640224124302 -0.4300060237367346 -0.4364469843804019
255 0.474963138665535 -0.4631041401567019 -0.3978337420972479
256 3.090067949363839 -0.08966849213861597 -0.5897325992936386
257 0.7721268473964895 0.5283945604183451 -0.3203405768160397
258 0.3696711279745504 0.4512187710399464 -0.3008975504312479
259 0.9475119629883335 0.009155233456597023 -0.5955564088537793
260 2.261416802292559 0.5364932392899806 0.1915653252295192
261 2.424574394097872 -0.4709110878704391 0.2501470569944492
262 2.13362321790955 0.03501020612590376 -0.6238971984141088
263 1.560749812645695 -0.5036267424395463 0.1132762653219468
264 1.148859956761878 0.503944641085103 0.123521677982853
265 4.561895789879558 -0.2280351887746032 -0.5060150291401236
266 3.361053512901001 -0.5468442729656152 0.1263247525827844
267 2.97075089655564 -0.4073276242238669 0.3759434087526777
268 0.8008434293076483 -0.4704238053903302 0.2708818792036942
269 1.706016268768435 0.5896302519463329 -0.1223193737791106
270 4.647985260876998 0.422958328955207 -0.306953329002809
271 2.567218562082557 -0.03367391234745486 -0.5622631485485622
272 3.995767956369789 0.4925170855013022 0.1643541484541613
273 4.343224867023564 -0.497835947424577 0.2297606042483157
274 2.433025294929417 0.5130722581816747 -0.3605459625753501
275 2.907931688996203 -0.6164106448636038 -0.05784599463631391
276 4.58051971912133 0.5760356605234379 0.08499548936877645
$EndNodes
$Elements
1383
1 2 2 12 2 5 106 1
2 2 2 12 2 1 106 10
3 2 2 12 2 6 106 5
4 2 2 12 2 7 106 6
5 2 2 12 2 8 106 7
6 2 2 12 2 9 106 8
7 2 2 12 2 10 106 9
8 2 2 13 3 19 2 107
9 2 2 13 3 2 24 107
10 2 2 13 3 20 19 107
11 2 2 13 3 21 20 107
12 2 2 13 3 22 21 107
13 2 2 13 3 23 22 107
14 2 2 13 3 24 23 107
15 2 2 10 4 3 204 25
16 2 2 10 4 34 206 3
17 2 2 10 4 42 204 3
18 2 2 10 4 3 206 42
19 2 2 10 4 4 205 35
20 2 2 10 4 35 207 4
21 2 2 10 4 43 205 4
22 2 2 10 4 4 207 52
23 2 2 10 4 25 121 26
24 2 2 10 4 25 204 121
25 2 2 10 4 26 202 27
26 2 2 10 4 121 202 26
27 2 2 10 4 27 116 28
28 2 2 10 4 27 202 116
29 2 2 10 4 28 197 29
30 2 2 10 4 116 197 28
31 2 2 10 4 29 111 30
32 2 2 10 4 29 197 111
33 2 2 10 4 30 184 31
34 2 2 10 4 111 184 30
35 2 2 10 4 31 119 32
36 2 2 10 4 31 184 119
37 2 2 10 4 32 181 33
38 2 2 10 4 119 181 32
39 2 2 10 4 33 123 34
40 2 2 10 4 33 181 123
41 2 2 10 4 123 206 34
42 2 2 10 4 35 186 36
43 2 2 10 4 36 188 35
44 2 2 10 4 35 205 186
45 2 2 10 4 188 207 35
46 2 2 10 4 36 112 37
47 2 2 10 4 37 113 36
48 2 2 10 4 36 186 112
49 2 2 10 4 113 188 36
50 2 2 10 4 37 124 38
51 2 2 10 4 38 193 37
52 2 2 10 4 112 124 37
53 2 2 10 4 37 193 113
54 2 2 10 4 39 108 38
55 2 2 10 4 38 109 39
56 2 2 10 4 108 193 38
57 2 2 10 4 38 124 109
58 2 2 10 4 39 174 40
59 2 2 10 4 40 194 39
60 2 2 10 4 39 194 108
61 2 2 10 4 109 174 39
62 2 2 10 4 41 114 40
63 2 2 10 4 40 115 41
64 2 2 10 4 114 194 40
65 2 2 10 4 40 174 115
66 2 2 10 4 41 187 42
67 2 2 10 4 42 189 41
68 2 2 10 4 41 189 114
69 2 2 10 4 115 187 41
70 2 2 10 4 187 204 42
71 2 2 10 4 42 206 189
72 2 2 10 4 44 120 43
73 2 2 10 4 120 205 43
74 2 2 10 4 45 208 44
75 2 2 10 4 44 208 120
76 2 2 10 4 46 117 45
77 2 2 10 4 117 208 45
78 2 2 10 4 47 199 46
79 2 2 10 4 46 199 117
80 2 2 10 4 48 110 47
81 2 2 10 4 110 199 47
82 2 2 10 4 49 183 48
83 2 2 10 4 48 183 110
84 2 2 10 4 50 118 49
85 2 2 10 4 118 183 49
86 2 2 10 4 51 182 50
87 2 2 10 4 50 182 118
88 2 2 10 4 52 122 51
89 2 2 10 4 122 182 51
90 2 2 10 4 52 207 122
91 2 2 10 4 108 192 156
92 2 2 10 4 156 193 108
93 2 2 10 4 161 192 108
94 2 2 10 4 108 194 161
95 2 2 10 4 124 125 109
96 2 2 10 4 125 126 109
97 2 2 10 4 126 174 109
98 2 2 10 4 159 176 110
99 2 2 10 4 110 190 159
100 2 2 10 4 176 199 110
101 2 2 10 4 183 190 110
102 2 2 10 4 111 180 157
103 2 2 10 4 157 191 111
104 2 2 10 4 111 197 180
105 2 2 10 4 111 191 184
106 2 2 10 4 112 173 124
107 2 2 10 4 112 179 173
108 2 2 10 4 112 186 179
109 2 2 10 4 113 193 156
110 2 2 10 4 156 196 113
111 2 2 10 4 113 201 188
112 2 2 10 4 196 201 113
113 2 2 10 4 161 194 114
114 2 2 10 4 114 195 161
115 2 2 10 4 189 203 114
116 2 2 10 4 114 203 195
117 2 2 10 4 115 174 171
118 2 2 10 4 171 175 115
119 2 2 10 4 175 187 115
120 2 2 10 4 116 169 167
121 2 2 10 4 167 180 116
122 2 2 10 4 116 202 169
123 2 2 10 4 180 197 116
124 2 2 10 4 176 177 117
125 2 2 10 4 117 199 176
126 2 2 10 4 177 178 117
127 2 2 10 4 178 208 117
128 2 2 10 4 155 183 118
129 2 2 10 4 118 198 155
130 2 2 10 4 182 198 118
131 2 2 10 4 119 200 181
132 2 2 10 4 184 185 119
133 2 2 10 4 185 200 119
134 2 2 10 4 178 179 120
135 2 2 10 4 120 208 178
136 2 2 10 4 179 186 120
137 2 2 10 4 186 205 120
138 2 2 10 4 121 175 169
139 2 2 10 4 169 202 121
140 2 2 10 4 121 187 175
141 2 2 10 4 121 204 187
142 2 2 10 4 122 201 182
143 2 2 10 4 188 201 122
144 2 2 10 4 122 207 188
145 2 2 10 4 181 203 123
146 2 2 10 4 123 203 189
147 2 2 10 4 189 206 123
148 2 2 10 4 124 173 125
149 2 2 10 4 125 127 126
150 2 2 10 4 125 128 127
151 2 2 10 4 125 173 128
152 2 2 10 4 127 170 126
153 2 2 10 4 170 171 126
154 2 2 10 4 171 174 126
155 2 2 10 4 128 129 127
156 2 2 10 4 129 130 127
157 2 2 10 4 130 170 127
158 2 2 10 4 128 131 129
159 2 2 10 4 128 145 131
160 2 2 10 4 128 173 145
161 2 2 10 4 129 172 130
162 2 2 10 4 131 132 129
163 2 2 10 4 132 172 129
164 2 2 10 4 165 166 130
165 2 2 10 4 130 172 165
166 2 2 10 4 166 170 130
167 2 2 10 4 131 133 132
168 2 2 10 4 131 177 133
169 2 2 10 4 145 177 131
170 2 2 10 4 133 134 132
171 2 2 10 4 134 135 132
172 2 2 10 4 135 172 132
173 2 2 10 4 133 159 134
174 2 2 10 4 133 176 159
175 2 2 10 4 133 177 176
176 2 2 10 4 134 136 135
177 2 2 10 4 134 163 136
178 2 2 10 4 159 163 134
179 2 2 10 4 136 137 135
180 2 2 10 4 137 164 135
181 2 2 10 4 164 172 135
182 2 2 10 4 136 138 137
183 2 2 10 4 136 141 138
184 2 2 10 4 136 163 141
185 2 2 10 4 138 139 137
186 2 2 10 4 139 140 137
187 2 2 10 4 140 164 137
188 2 2 10 4 138 162 139
189 2 2 10 4 141 142 138
190 2 2 10 4 142 162 138
191 2 2 10 4 139 143 140
192 2 2 10 4 139 144 143
193 2 2 10 4 139 162 144
194 2 2 10 4 143 148 140
195 2 2 10 4 148 149 140
196 2 2 10 4 149 164 140
197 2 2 10 4 141 146 142
198 2 2 10 4 141 155 146
199 2 2 10 4 141 163 155
200 2 2 10 4 146 150 142
201 2 2 10 4 150 151 142
202 2 2 10 4 151 162 142
203 2 2 10 4 144 147 143
204 2 2 10 4 147 185 143
205 2 2 10 4 143 185 148
206 2 2 10 4 144 152 147
207 2 2 10 4 144 160 152
208 2 2 10 4 144 162 160
209 2 2 10 4 173 179 145
210 2 2 10 4 145 178 177
211 2 2 10 4 145 179 178
212 2 2 10 4 146 153 150
213 2 2 10 4 146 198 153
214 2 2 10 4 155 198 146
215 2 2 10 4 152 154 147
216 2 2 10 4 154 200 147
217 2 2 10 4 147 200 185
218 2 2 10 4 148 157 149
219 2 2 10 4 148 191 157
220 2 2 10 4 185 191 148
221 2 2 10 4 157 158 149
222 2 2 10 4 158 165 149
223 2 2 10 4 149 165 164
224 2 2 10 4 150 156 151
225 2 2 10 4 153 196 150
226 2 2 10 4 150 196 156
227 2 2 10 4 156 192 151
228 2 2 10 4 160 162 151
229 2 2 10 4 151 192 160
230 2 2 10 4 152 195 154
231 2 2 10 4 160 161 152
232 2 2 10 4 161 195 152
233 2 2 10 4 153 198 182
234 2 2 10 4 182 201 153
235 2 2 10 4 153 201 196
236 2 2 10 4 181 200 154
237 2 2 10 4 154 203 181
238 2 2 10 4 195 203 154
239 2 2 10 4 163 190 155
240 2 2 10 4 155 190 183
241 2 2 10 4 157 180 158
242 2 2 10 4 158 166 165
243 2 2 10 4 158 167 166
244 2 2 10 4 158 180 167
245 2 2 10 4 159 190 163
246 2 2 10 4 160 192 161
247 2 2 10 4 165 172 164
248 2 2 10 4 167 168 166
249 2 2 10 4 168 170 166
250 2 2 10 4 167 169 168
251 2 2 10 4 169 175 168
252 2 2 10 4 168 171 170
253 2 2 10 4 168 175 171
254 2 2 10 4 184 191 185
255 2 2 9 5 1 212 5
256 2 2 9 5 10 213 1
257 2 2 9 5 1 213 212
258 2 2 9 5 25 227 3
259 2 2 9 5 3 226 34
260 2 2 9 5 222 226 3
261 2 2 9 5 3 227 222
262 2 2 9 5 5 211 6
263 2 2 9 5 5 212 211
264 2 2 9 5 6 214 7
265 2 2 9 5 211 214 6
266 2 2 9 5 7 209 8
267 2 2 9 5 7 214 209
268 2 2 9 5 8 215 9
269 2 2 9 5 209 215 8
270 2 2 9 5 9 210 10
271 2 2 9 5 9 215 210
272 2 2 9 5 210 213 10
273 2 2 9 5 26 216 25
274 2 2 9 5 216 227 25
275 2 2 9 5 27 229 26
276 2 2 9 5 26 229 216
277 2 2 9 5 28 224 27
278 2 2 9 5 27 224 221
279 2 2 9 5 221 229 27
280 2 2 9 5 29 218 28
281 2 2 9 5 218 224 28
282 2 2 9 5 30 223 29
283 2 2 9 5 29 223 218
284 2 2 9 5 31 219 30
285 2 2 9 5 219 223 30
286 2 2 9 5 32 225 31
287 2 2 9 5 31 225 219
288 2 2 9 5 33 228 32
289 2 2 9 5 220 225 32
290 2 2 9 5 32 228 220
291 2 2 9 5 34 217 33
292 2 2 9 5 217 228 33
293 2 2 9 5 34 226 217
294 2 2 9 5 214 218 209
295 2 2 9 5 209 219 215
296 2 2 9 5 218 223 209
297 2 2 9 5 209 223 219
298 2 2 9 5 210 217 213
299 2 2 9 5 215 220 210
300 2 2 9 5 210 228 217
301 2 2 9 5 220 228 210
302 2 2 9 5 212 216 211
303 2 2 9 5 211 221 214
304 2 2 9 5 216 229 211
305 2 2 9 5 211 229 221
306 2 2 9 5 213 222 212
307 2 2 9 5 212 227 216
308 2 2 9 5 222 227 212
309 2 2 9 5 217 226 213
310 2 2 9 5 213 226 222
311 2 2 9 5 214 224 218
312 2 2 9 5 221 224 214
313 2 2 9 5 219 225 215
314 2 2 9 5 215 225 220
315 2 2 11 6 2 19 233
316 2 2 11 6 24 2 234
317 2 2 11 6 2 233 234
318 2 2 11 6 43 4 248
319 2 2 11 6 4 52 247
320 2 2 11 6 243 4 247
321 2 2 11 6 4 243 248
322 2 2 11 6 19 20 232
323 2 2 11 6 19 232 233
324 2 2 11 6 20 21 235
325 2 2 11 6 232 20 235
326 2 2 11 6 21 22 230
327 2 2 11 6 21 230 235
328 2 2 11 6 22 23 236
329 2 2 11 6 230 22 236
330 2 2 11 6 23 24 231
331 2 2 11 6 23 231 236
332 2 2 11 6 231 24 234
333 2 2 11 6 44 43 237
334 2 2 11 6 237 43 248
335 2 2 11 6 45 44 250
336 2 2 11 6 44 237 250
337 2 2 11 6 46 45 245
338 2 2 11 6 45 242 245
339 2 2 11 6 242 45 250
340 2 2 11 6 47 46 239
341 2 2 11 6 239 46 245
342 2 2 11 6 48 47 244
343 2 2 11 6 47 239 244
344 2 2 11 6 49 48 240
345 2 2 11 6 240 48 244
346 2 2 11 6 50 49 246
347 2 2 11 6 49 240 246
348 2 2 11 6 51 50 249
349 2 2 11 6 241 50 246
350 2 2 11 6 50 241 249
351 2 2 11 6 52 51 238
352 2 2 11 6 238 51 249
353 2 2 11 6 52 238 247
354 2 2 11 6 235 230 239
355 2 2 11 6 230 236 240
356 2 2 11 6 239 230 244
357 2 2 11 6 230 240 244
358 2 2 11 6 231 234 238
359 2 2 11 6 236 231 241
360 2 2 11 6 231 238 249
361 2 2 11 6 241 231 249
362 2 2 11 6 233 232 237
363 2 2 11 6 232 235 242
364 2 2 11 6 237 232 250
365 2 2 11 6 232 242 250
366 2 2 11 6 234 233 243
367 2 2 11 6 233 237 248
368 2 2 11 6 243 233 248
369 2 2 11 6 238 234 247
370 2 2 11 6 234 243 247
371 2 2 11 6 235 239 245
372 2 2 11 6 242 235 245
373 2 2 11 6 240 236 246
374 2 2 11 6 236 241 246
375 4 2 2 1 81 63 106 80
376 4 2 2 1 70 73 59 71
377 4 2 2 1 106 66 81 80
378 4 2 2 1 89 59 107 65
379 4 2 2 1 59 70 107 65
380 4 2 2 1 70 59 73 65
381 4 2 2 1 72 101 73 71
382 4 2 2 1 59 89 73 65
383 4 2 2 1 72 100 101 71
384 4 2 2 1 100 73 101 71
385 4 2 2 1 72 73 101 65
386 4 2 2 1 101 100 72 60
387 4 2 2 1 63 106 8 81
388 4 2 2 1 21 89 59 107
389 4 2 2 1 7 106 63 80
390 4 2 2 1 8 7 106 63
391 4 2 2 1 59 22 21 107
392 4 2 2 1 60 100 72 71
393 4 2 2 1 22 59 70 107
394 4 2 2 1 21 20 89 107
395 4 2 2 1 78 67 90 103
396 4 2 2 1 15 14 99 77
397 4 2 2 1 106 7 6 80
398 4 2 2 1 13 78 91 103
399 4 2 2 1 64 66 106 80
400 4 2 2 1 80 66 82 102
401 4 2 2 1 69 82 66 102
402 4 2 2 1 23 22 70 107
403 4 2 2 1 61 107 70 65
404 4 2 2 1 72 101 11 65
405 4 2 2 1 9 8 106 81
406 4 2 2 1 56 91 90 103
407 4 2 2 1 12 96 74 88
408 4 2 2 1 18 62 68 87
409 4 2 2 1 90 91 78 103
410 4 2 2 1 74 11 12 88
411 4 2 2 1 61 70 73 65
412 4 2 2 1 96 12 58 88
413 4 2 2 1 73 72 61 65
414 4 2 2 1 94 12 13 105
415 4 2 2 1 106 66 9 81
416 4 2 2 1 61 72 11 65
417 4 2 2 1 64 66 80 102
418 4 2 2 1 77 76 53 104
419 4 2 2 1 85 86 17 55
420 4 2 2 1 83 98 14 77
421 4 2 2 1 78 13 14 103
422 4 2 2 1 53 99 98 77
423 4 2 2 1 99 14 98 77
424 4 2 2 1 57 16 75 79
425 4 2 2 1 66 9 10 106
426 4 2 2 1 85 17 16 55
427 4 2 2 1 18 1 64 66
428 4 2 2 1 62 18 17 87
429 4 2 2 1 66 64 18 102
430 4 2 2 1 16 15 75 79
431 4 2 2 1 69 82 102 68
432 4 2 2 1 76 79 75 104
433 4 2 2 1 13 92 94 105
434 4 2 2 1 66 18 69 102
435 4 2 2 1 56 92 13 93
436 4 2 2 1 56 90 67 103
437 4 2 2 1 72 11 101 60
438 4 2 2 1 53 15 77 104
439 4 2 2 1 67 78 14 103
440 4 2 2 1 61 11 2 65
441 4 2 2 1 74 97 60 88
442 4 2 2 1 84 16 57 79
443 4 2 2 1 98 83 53 77
444 4 2 2 1 91 92 13 56
445 4 2 2 1 83 14 78 77
446 4 2 2 1 62 69 18 68
447 4 2 2 1 102 18 69 68
448 4 2 2 1 54 94 12 95
449 4 2 2 1 66 10 1 106
450 4 2 2 1 53 15 99 77
451 4 2 2 1 54 94 92 105
452 4 2 2 1 90 67 78 83
453 4 2 2 1 1 64 66 106
454 4 2 2 1 67 98 14 83
455 4 2 2 1 12 94 54 105
456 4 2 2 1 93 13 56 103
457 4 2 2 1 79 75 57 76
458 4 2 2 1 107 20 89 65
459 4 2 2 1 56 13 91 103
460 4 2 2 1 79 15 75 104
461 4 2 2 1 99 75 15 53
462 4 2 2 1 87 17 86 55
463 4 2 2 1 96 12 95 58
464 4 2 2 1 55 16 85 84
465 4 2 2 1 62 17 86 87
466 4 2 2 1 6 64 106 80
467 4 2 2 1 97 100 74 60
468 4 2 2 1 92 13 93 105
469 4 2 2 1 2 107 61 65
470 4 2 2 1 96 12 94 95
471 4 2 2 1 107 70 23 61
472 4 2 2 1 60 11 74 88
473 4 2 2 1 107 23 24 61
474 4 2 2 1 64 5 6 106
475 4 2 2 1 19 20 107 65
476 4 2 2 1 54 92 93 105
477 4 2 2 1 57 85 16 84
478 4 2 2 1 67 14 78 83
479 4 2 2 1 107 24 2 61
480 4 2 2 1 64 1 5 106
481 4 2 2 1 107 2 19 65
482 4 2 2 1 13 93 105 103
483 4 2 2 1 80 81 82 66
484 4 2 2 1 80 82 81 63
485 4 2 2 1 70 72 73 71
486 4 2 2 1 70 73 72 61
487 4 2 2 1 97 96 88 74
488 4 2 2 1 88 96 97 58
489 4 2 2 1 101 60 74 100
490 4 2 2 1 74 60 101 11
491 4 2 2 1 75 104 53 76
492 4 2 2 1 53 104 75 15
493 4 2 1 2 88 60 72 258
494 4 2 1 2 57 76 139 256
495 4 2 1 2 238 72 249 122
496 4 2 1 2 97 100 60 251
497 4 2 1 2 62 68 87 265
498 4 2 1 2 92 91 132 253
499 4 2 1 2 139 256 76 271
500 4 2 1 2 57 75 139 76
501 4 2 1 2 131 132 92 91
502 4 2 1 2 88 72 11 122
503 4 2 1 2 250 101 237 268
504 4 2 1 2 191 62 86 157
505 4 2 1 2 97 251 60 258
506 4 2 1 2 182 72 88 122
507 4 2 1 2 191 62 265 270
508 4 2 1 2 76 271 53 274
509 4 2 1 2 73 89 59 251
510 4 2 1 2 157 62 86 87
511 4 2 1 2 139 271 76 274
512 4 2 1 2 55 158 84 256
513 4 2 1 2 14 261 124 263
514 4 2 1 2 62 200 86 272
515 4 2 1 2 60 100 71 251
516 4 2 1 2 84 79 254 275
517 4 2 1 2 57 75 152 144
518 4 2 1 2 165 254 84 256
519 4 2 1 2 139 76 75 274
520 4 2 1 2 59 240 70 71
521 4 2 1 2 160 99 260 274
522 4 2 1 2 254 261 129 275
523 4 2 1 2 75 76 53 274
524 4 2 1 2 84 166 55 266
525 4 2 1 2 208 101 242 250
526 4 2 1 2 238 11 72 122
527 4 2 1 2 208 101 250 268
528 4 2 1 2 62 157 191 265
529 4 2 1 2 157 86 148 55
530 4 2 1 2 91 92 131 263
531 4 2 1 2 77 129 254 261
532 4 2 1 2 65 250 101 237
533 4 2 1 2 133 92 132 253
534 4 2 1 2 55 84 158 166
535 4 2 1 2 103 105 13 156
536 4 2 1 2 57 152 85 144
537 4 2 1 2 251 257 97 259
538 4 2 1 2 87 86 157 55
539 4 2 1 2 165 84 158 256
540 4 2 1 2 77 261 254 275
541 4 2 1 2 95 146 257 264
542 4 2 1 2 97 257 251 258
543 4 2 1 2 125 124 261 263
544 4 2 1 2 217 213 18 66
545 4 2 1 2 86 85 148 55
546 4 2 1 2 249 72 182 122
547 4 2 1 2 160 75 99 274
548 4 2 1 2 91 132 253 262
549 4 2 1 2 160 99 192 260
550 4 2 1 2 233 11 248 237
551 4 2 1 2 11 238 234 247
552 4 2 1 2 103 193 14 260
553 4 2 1 2 96 94 133 259
554 4 2 1 2 95 54 146 264
555 4 2 1 2 166 266 84 275
556 4 2 1 2 78 172 262 271
557 4 2 1 2 55 84 85 256
558 4 2 1 2 11 237 101 268
559 4 2 1 2 77 254 172 271
560 4 2 1 2 152 195 16 85
561 4 2 1 2 62 87 157 265
562 4 2 1 2 85 57 143 256
563 4 2 1 2 14 124 13 263
564 4 2 1 2 213 18 226 217
565 4 2 1 2 182 72 249 258
566 4 2 1 2 88 188 12 264
567 4 2 1 2 200 62 86 185
568 4 2 1 2 172 77 129 254
569 4 2 1 2 57 75 144 139
570 4 2 1 2 69 270 62 276
571 4 2 1 2 185 62 86 191
572 4 2 1 2 101 208 255 268
573 4 2 1 2 147 86 85 143
574 4 2 1 2 93 253 54 269
575 4 2 1 2 131 132 133 92
576 4 2 1 2 148 149 55 256
577 4 2 1 2 78 77 172 271
578 4 2 1 2 147 86 200 272
579 4 2 1 2 82 265 62 270
580 4 2 1 2 89 230 59 251
581 4 2 1 2 65 101 11 237
582 4 2 1 2 78 132 129 91
583 4 2 1 2 62 270 200 276
584 4 2 1 2 242 101 208 255
585 4 2 1 2 122 11 88 188
586 4 2 1 2 116 68 102 265
587 4 2 1 2 38 14 15 109
588 4 2 1 2 109 15 38 39
589 4 2 1 2 55 85 148 256
590 4 2 1 2 131 129 132 91
591 4 2 1 2 215 63 81 270
592 4 2 1 2 195 16 85 272
593 4 2 1 2 13 14 38 124
594 4 2 1 2 11 238 247 207
595 4 2 1 2 17 175 115 266
596 4 2 1 2 115 16 17 266
597 4 2 1 2 84 165 158 166
598 4 2 1 2 54 146 155 95
599 4 2 1 2 109 14 15 261
600 4 2 1 2 87 168 175 266
601 4 2 1 2 163 253 95 259
602 4 2 1 2 88 11 12 188
603 4 2 1 2 37 13 38 124
604 4 2 1 2 92 133 94 253
605 4 2 1 2 17 16 115 41
606 4 2 1 2 16 194 15 267
607 4 2 1 2 194 16 15 75
608 4 2 1 2 188 11 12 35
609 4 2 1 2 37 12 13 112
610 4 2 1 2 55 167 87 266
611 4 2 1 2 78 262 83 271
612 4 2 1 2 86 148 191 157
613 4 2 1 2 166 167 55 266
614 4 2 1 2 39 15 194 267
615 4 2 1 2 87 175 17 266
616 4 2 1 2 35 11 12 186
617 4 2 1 2 13 14 193 38
618 4 2 1 2 14 78 261 263
619 4 2 1 2 143 86 85 148
620 4 2 1 2 159 94 253 259
621 4 2 1 2 12 36 188 35
622 4 2 1 2 36 12 37 112
623 4 2 1 2 133 176 96 259
624 4 2 1 2 94 133 177 96
625 4 2 1 2 38 193 13 37
626 4 2 1 2 41 16 115 40
627 4 2 1 2 40 194 16 267
628 4 2 1 2 12 263 112 268
629 4 2 1 2 187 18 17 41
630 4 2 1 2 35 12 36 186
631 4 2 1 2 18 187 42 41
632 4 2 1 2 132 78 172 262
633 4 2 1 2 39 194 40 267
634 4 2 1 2 205 248 11 237
635 4 2 1 2 16 161 152 75
636 4 2 1 2 55 149 158 256
637 4 2 1 2 62 185 200 270
638 4 2 1 2 191 265 184 270
639 4 2 1 2 87 167 68 273
640 4 2 1 2 86 147 185 143
641 4 2 1 2 186 11 12 268
642 4 2 1 2 62 69 82 270
643 4 2 1 2 146 54 141 269
644 4 2 1 2 127 129 261 275
645 4 2 1 2 103 13 14 193
646 4 2 1 2 226 18 206 217
647 4 2 1 2 189 17 18 41
648 4 2 1 2 18 42 189 41
649 4 2 1 2 13 103 156 193
650 4 2 1 2 129 78 77 172
651 4 2 1 2 129 77 78 261
652 4 2 1 2 200 86 147 185
653 4 2 1 2 233 65 11 237
654 4 2 1 2 85 57 144 143
655 4 2 1 2 124 14 109 261
656 4 2 1 2 78 83 77 271
657 4 2 1 2 157 87 55 158
658 4 2 1 2 68 116 102 273
659 4 2 1 2 146 155 95 257
660 4 2 1 2 54 146 264 269
661 4 2 1 2 85 86 147 272
662 4 2 1 2 167 116 68 273
663 4 2 1 2 75 160 144 274
664 4 2 1 2 152 195 85 272
665 4 2 1 2 139 144 57 143
666 4 2 1 2 163 95 155 259
667 4 2 1 2 15 14 108 99
668 4 2 1 2 144 139 75 274
669 4 2 1 2 195 16 161 152
670 4 2 1 2 112 263 179 268
671 4 2 1 2 130 254 129 275
672 4 2 1 2 91 78 132 262
673 4 2 1 2 60 251 71 258
674 4 2 1 2 95 58 257 259
675 4 2 1 2 55 148 157 149
676 4 2 1 2 16 195 114 272
677 4 2 1 2 35 243 11 248
678 4 2 1 2 224 221 102 116
679 4 2 1 2 16 266 115 267
680 4 2 1 2 192 99 108 260
681 4 2 1 2 125 173 124 263
682 4 2 1 2 205 237 11 268
683 4 2 1 2 62 200 272 276
684 4 2 1 2 139 140 256 271
685 4 2 1 2 226 42 18 222
686 4 2 1 2 42 227 18 222
687 4 2 1 2 157 55 149 158
688 4 2 1 2 185 86 143 148
689 4 2 1 2 67 260 252 269
690 4 2 1 2 201 188 88 264
691 4 2 1 2 217 18 123 276
692 4 2 1 2 125 261 128 263
693 4 2 1 2 105 264 196 269
694 4 2 1 2 108 99 14 260
695 4 2 1 2 87 167 168 266
696 4 2 1 2 148 185 86 191
697 4 2 1 2 123 18 272 276
698 4 2 1 2 166 158 55 167
699 4 2 1 2 217 66 18 276
700 4 2 1 2 156 193 103 260
701 4 2 1 2 75 160 152 144
702 4 2 1 2 88 201 122 188
703 4 2 1 2 17 16 41 114
704 4 2 1 2 96 255 74 259
705 4 2 1 2 124 112 13 263
706 4 2 1 2 141 54 155 253
707 4 2 1 2 12 13 113 37
708 4 2 1 2 134 133 132 253
709 4 2 1 2 145 263 177 268
710 4 2 1 2 128 261 78 263
711 4 2 1 2 129 78 128 261
712 4 2 1 2 96 176 177 255
713 4 2 1 2 13 112 12 263
714 4 2 1 2 79 84 266 275
715 4 2 1 2 175 168 87 273
716 4 2 1 2 223 219 184 265
717 4 2 1 2 17 16 114 272
718 4 2 1 2 37 113 12 36
719 4 2 1 2 116 102 224 265
720 4 2 1 2 40 41 16 114
721 4 2 1 2 238 11 122 207
722 4 2 1 2 102 116 221 273
723 4 2 1 2 212 64 216 273
724 4 2 1 2 16 194 161 75
725 4 2 1 2 91 90 78 262
726 4 2 1 2 94 133 159 253
727 4 2 1 2 78 129 132 172
728 4 2 1 2 115 40 16 267
729 4 2 1 2 176 177 133 96
730 4 2 1 2 94 159 133 259
731 4 2 1 2 152 85 147 272
732 4 2 1 2 108 14 15 38
733 4 2 1 2 177 133 94 263
734 4 2 1 2 175 17 115 187
735 4 2 1 2 174 40 115 267
736 4 2 1 2 15 108 38 39
737 4 2 1 2 223 82 219 265
738 4 2 1 2 95 257 155 259
739 4 2 1 2 144 152 85 147
740 4 2 1 2 250 237 120 268
741 4 2 1 2 87 55 158 167
742 4 2 1 2 103 156 260 269
743 4 2 1 2 252 253 93 269
744 4 2 1 2 105 12 13 113
745 4 2 1 2 124 14 38 109
746 4 2 1 2 59 240 230 70
747 4 2 1 2 85 143 148 256
748 4 2 1 2 84 254 79 256
749 4 2 1 2 12 112 186 268
750 4 2 1 2 96 176 255 259
751 4 2 1 2 123 18 189 272
752 4 2 1 2 156 105 13 113
753 4 2 1 2 219 265 82 270
754 4 2 1 2 63 82 81 270
755 4 2 1 2 12 113 105 264
756 4 2 1 2 77 104 261 275
757 4 2 1 2 248 243 11 233
758 4 2 1 2 247 234 11 243
759 4 2 1 2 109 261 15 267
760 4 2 1 2 227 212 18 222
761 4 2 1 2 222 18 226 213
762 4 2 1 2 37 13 124 112
763 4 2 1 2 141 54 253 269
764 4 2 1 2 88 257 182 264
765 4 2 1 2 53 99 75 274
766 4 2 1 2 123 206 18 217
767 4 2 1 2 18 17 189 272
768 4 2 1 2 17 175 87 273
769 4 2 1 2 187 17 115 41
770 4 2 1 2 96 94 12 268
771 4 2 1 2 156 196 105 113
772 4 2 1 2 157 87 180 265
773 4 2 1 2 14 13 78 263
774 4 2 1 2 67 252 260 274
775 4 2 1 2 102 80 224 265
776 4 2 1 2 113 12 188 264
777 4 2 1 2 108 14 193 260
778 4 2 1 2 201 182 88 122
779 4 2 1 2 250 101 242 65
780 4 2 1 2 184 265 219 270
781 4 2 1 2 11 35 248 205
782 4 2 1 2 160 162 144 274
783 4 2 1 2 177 255 178 268
784 4 2 1 2 109 15 39 267
785 4 2 1 2 88 182 201 264
786 4 2 1 2 122 11 188 207
787 4 2 1 2 177 131 133 263
788 4 2 1 2 18 187 17 273
789 4 2 1 2 105 113 196 264
790 4 2 1 2 120 237 205 268
791 4 2 1 2 124 173 112 263
792 4 2 1 2 115 266 171 267
793 4 2 1 2 80 214 221 224
794 4 2 1 2 227 18 204 42
795 4 2 1 2 206 42 18 226
796 4 2 1 2 183 257 251 259
797 4 2 1 2 251 257 183 258
798 4 2 1 2 12 36 186 112
799 4 2 1 2 161 114 16 195
800 4 2 1 2 17 187 175 273
801 4 2 1 2 85 84 57 256
802 4 2 1 2 132 134 253 262
803 4 2 1 2 147 85 144 143
804 4 2 1 2 160 152 161 75
805 4 2 1 2 146 155 141 54
806 4 2 1 2 11 186 205 268
807 4 2 1 2 238 72 61 249
808 4 2 1 2 252 260 142 269
809 4 2 1 2 95 253 94 259
810 4 2 1 2 221 102 80 224
811 4 2 1 2 127 130 129 275
812 4 2 1 2 87 17 55 266
813 4 2 1 2 40 174 39 267
814 4 2 1 2 172 135 262 271
815 4 2 1 2 189 206 18 123
816 4 2 1 2 67 260 98 274
817 4 2 1 2 82 68 62 265
818 4 2 1 2 142 260 252 274
819 4 2 1 2 114 189 17 272
820 4 2 1 2 93 252 56 253
821 4 2 1 2 158 157 87 180
822 4 2 1 2 187 204 18 42
823 4 2 1 2 90 56 252 262
824 4 2 1 2 208 250 120 268
825 4 2 1 2 191 157 111 265
826 4 2 1 2 77 254 104 275
827 4 2 1 2 229 102 221 273
828 4 2 1 2 207 11 188 35
829 4 2 1 2 132 172 135 262
830 4 2 1 2 212 18 64 273
831 4 2 1 2 196 150 156 269
832 4 2 1 2 35 11 186 205
833 4 2 1 2 216 204 227 273
834 4 2 1 2 70 71 240 258
835 4 2 1 2 113 13 156 193
836 4 2 1 2 101 255 74 268
837 4 2 1 2 41 189 17 114
838 4 2 1 2 163 141 155 253
839 4 2 1 2 16 194 114 161
840 4 2 1 2 17 85 16 272
841 4 2 1 2 36 113 12 188
842 4 2 1 2 178 145 177 268
843 4 2 1 2 102 64 229 221
844 4 2 1 2 194 40 16 114
845 4 2 1 2 18 227 204 273
846 4 2 1 2 93 56 252 269
847 4 2 1 2 200 185 119 270
848 4 2 1 2 193 113 13 37
849 4 2 1 2 173 125 128 263
850 4 2 1 2 91 78 13 263
851 4 2 1 2 216 64 211 229
852 4 2 1 2 65 232 250 237
853 4 2 1 2 61 231 238 249
854 4 2 1 2 178 255 208 268
855 4 2 1 2 175 169 168 273
856 4 2 1 2 148 143 140 256
857 4 2 1 2 67 103 260 269
858 4 2 1 2 18 42 206 189
859 4 2 1 2 167 158 87 180
860 4 2 1 2 15 108 39 194
861 4 2 1 2 152 147 154 272
862 4 2 1 2 14 108 193 38
863 4 2 1 2 204 187 18 273
864 4 2 1 2 183 251 190 259
865 4 2 1 2 50 249 241 258
866 4 2 1 2 115 175 171 266
867 4 2 1 2 129 128 127 261
868 4 2 1 2 223 184 111 265
869 4 2 1 2 94 263 12 268
870 4 2 1 2 229 221 202 273
871 4 2 1 2 53 271 83 274
872 4 2 1 2 134 159 133 253
873 4 2 1 2 251 255 110 259
874 4 2 1 2 166 168 167 266
875 4 2 1 2 191 111 184 265
876 4 2 1 2 100 251 74 255
877 4 2 1 2 179 186 112 268
878 4 2 1 2 58 95 257 264
879 4 2 1 2 222 212 18 213
880 4 2 1 2 202 221 116 273
881 4 2 1 2 200 270 119 276
882 4 2 1 2 110 190 251 259
883 4 2 1 2 243 234 11 233
884 4 2 1 2 82 69 62 68
885 4 2 1 2 64 102 229 273
886 4 2 1 2 83 271 262 274
887 4 2 1 2 240 71 251 258
888 4 2 1 2 98 260 99 274
889 4 2 1 2 179 263 145 268
890 4 2 1 2 115 171 174 267
891 4 2 1 2 150 260 156 269
892 4 2 1 2 54 94 95 253
893 4 2 1 2 152 154 195 272
894 4 2 1 2 146 198 257 264
895 4 2 1 2 139 137 271 274
896 4 2 1 2 196 264 150 269
897 4 2 1 2 16 55 17 266
898 4 2 1 2 139 137 140 271
899 4 2 1 2 167 169 116 273
900 4 2 1 2 141 253 252 269
901 4 2 1 2 124 109 125 261
902 4 2 1 2 151 260 142 274
903 4 2 1 2 90 83 78 262
904 4 2 1 2 56 67 252 269
905 4 2 1 2 98 53 83 274
906 4 2 1 2 165 158 149 256
907 4 2 1 2 182 249 50 258
908 4 2 1 2 117 178 177 255
909 4 2 1 2 130 165 254 275
910 4 2 1 2 113 188 201 264
911 4 2 1 2 64 211 229 221
912 4 2 1 2 232 250 242 65
913 4 2 1 2 239 235 89 230
914 4 2 1 2 198 182 257 264
915 4 2 1 2 123 189 203 272
916 4 2 1 2 215 219 63 270
917 4 2 1 2 230 22 59 70
918 4 2 1 2 117 208 178 255
919 4 2 1 2 63 80 82 265
920 4 2 1 2 151 260 150 269
921 4 2 1 2 104 267 261 275
922 4 2 1 2 90 67 83 252
923 4 2 1 2 67 98 252 274
924 4 2 1 2 56 103 67 269
925 4 2 1 2 133 159 176 259
926 4 2 1 2 173 179 112 263
927 4 2 1 2 83 262 252 274
928 4 2 1 2 252 262 138 274
929 4 2 1 2 74 255 251 259
930 4 2 1 2 109 39 174 267
931 4 2 1 2 240 251 183 258
932 4 2 1 2 137 262 271 274
933 4 2 1 2 239 230 89 251
934 4 2 1 2 2 11 234 233
935 4 2 1 2 98 83 252 274
936 4 2 1 2 98 99 53 274
937 4 2 1 2 225 270 220 276
938 4 2 1 2 70 240 236 258
939 4 2 1 2 97 257 58 259
940 4 2 1 2 236 230 240 70
941 4 2 1 2 151 142 260 269
942 4 2 1 2 59 71 73 251
943 4 2 1 2 48 240 244 251
944 4 2 1 2 209 63 215 219
945 4 2 1 2 242 208 117 255
946 4 2 1 2 212 1 18 213
947 4 2 1 2 162 139 144 274
948 4 2 1 2 91 92 56 253
949 4 2 1 2 216 64 229 273
950 4 2 1 2 243 247 4 35
951 4 2 1 2 4 243 35 248
952 4 2 1 2 127 261 126 275
953 4 2 1 2 183 190 257 259
954 4 2 1 2 42 3 227 222
955 4 2 1 2 3 42 226 222
956 4 2 1 2 98 83 67 252
957 4 2 1 2 63 219 82 270
958 4 2 1 2 121 204 216 273
959 4 2 1 2 90 56 67 252
960 4 2 1 2 177 145 131 263
961 4 2 1 2 17 86 85 272
962 4 2 1 2 59 89 21 230
963 4 2 1 2 172 129 130 254
964 4 2 1 2 123 272 203 276
965 4 2 1 2 103 14 67 260
966 4 2 1 2 261 267 126 275
967 4 2 1 2 121 216 229 273
968 4 2 1 2 90 252 83 262
969 4 2 1 2 146 150 264 269
970 4 2 1 2 151 142 162 274
971 4 2 1 2 73 100 101 255
972 4 2 1 2 183 110 190 251
973 4 2 1 2 108 193 156 260
974 4 2 1 2 137 138 262 274
975 4 2 1 2 185 184 119 270
976 4 2 1 2 73 251 100 255
977 4 2 1 2 130 166 165 275
978 4 2 1 2 56 253 252 262
979 4 2 1 2 179 145 178 268
980 4 2 1 2 132 135 134 262
981 4 2 1 2 198 153 182 264
982 4 2 1 2 30 184 223 219
983 4 2 1 2 190 163 155 259
984 4 2 1 2 163 159 253 259
985 4 2 1 2 79 254 76 256
986 4 2 1 2 109 126 261 267
987 4 2 1 2 114 203 189 272
988 4 2 1 2 146 198 155 257
989 4 2 1 2 176 110 255 259
990 4 2 1 2 164 256 140 271
991 4 2 1 2 15 77 104 261
992 4 2 1 2 54 264 105 269
993 4 2 1 2 117 245 242 255
994 4 2 1 2 157 180 111 265
995 4 2 1 2 51 238 249 122
996 4 2 1 2 26 216 229 121
997 4 2 1 2 246 50 241 258
998 4 2 1 2 225 119 270 276
999 4 2 1 2 116 224 197 265
1000 4 2 1 2 155 257 190 259
1001 4 2 1 2 76 256 254 271
1002 4 2 1 2 15 261 104 267
1003 4 2 1 2 196 113 201 264
1004 4 2 1 2 73 71 100 251
1005 4 2 1 2 81 210 9 215
1006 4 2 1 2 76 79 104 254
1007 4 2 1 2 175 168 171 266
1008 4 2 1 2 225 220 32 276
1009 4 2 1 2 27 221 224 116
1010 4 2 1 2 125 127 128 261
1011 4 2 1 2 70 61 72 258
1012 4 2 1 2 181 272 200 276
1013 4 2 1 2 96 95 94 259
1014 4 2 1 2 50 118 182 258
1015 4 2 1 2 118 257 182 258
1016 4 2 1 2 94 54 92 253
1017 4 2 1 2 229 202 121 273
1018 4 2 1 2 147 200 154 272
1019 4 2 1 2 242 245 117 45
1020 4 2 1 2 250 44 120 237
1021 4 2 1 2 235 21 89 230
1022 4 2 1 2 48 183 240 251
1023 4 2 1 2 136 138 252 262
1024 4 2 1 2 8 63 81 215
1025 4 2 1 2 66 69 18 276
1026 4 2 1 2 221 27 202 116
1027 4 2 1 2 195 203 114 272
1028 4 2 1 2 51 249 182 122
1029 4 2 1 2 202 229 27 221
1030 4 2 1 2 146 150 153 264
1031 4 2 1 2 8 63 215 209
1032 4 2 1 2 140 149 148 256
1033 4 2 1 2 244 110 48 251
1034 4 2 1 2 88 58 257 264
1035 4 2 1 2 22 230 236 70
1036 4 2 1 2 207 4 247 35
1037 4 2 1 2 184 30 223 111
1038 4 2 1 2 110 251 199 255
1039 4 2 1 2 117 242 45 208
1040 4 2 1 2 164 172 254 271
1041 4 2 1 2 104 254 79 275
1042 4 2 1 2 137 164 140 271
1043 4 2 1 2 213 217 210 66
1044 4 2 1 2 64 18 102 273
1045 4 2 1 2 170 266 166 275
1046 4 2 1 2 228 217 33 276
1047 4 2 1 2 151 156 150 260
1048 4 2 1 2 202 26 229 121
1049 4 2 1 2 151 150 142 269
1050 4 2 1 2 242 45 208 250
1051 4 2 1 2 153 201 182 264
1052 4 2 1 2 170 127 126 275
1053 4 2 1 2 248 35 4 205
1054 4 2 1 2 72 71 70 258
1055 4 2 1 2 227 204 3 42
1056 4 2 1 2 3 42 206 226
1057 4 2 1 2 57 79 76 256
1058 4 2 1 2 240 49 246 258
1059 4 2 1 2 186 120 205 268
1060 4 2 1 2 218 223 29 265
1061 4 2 1 2 136 137 138 262
1062 4 2 1 2 47 244 239 251
1063 4 2 1 2 102 80 64 221
1064 4 2 1 2 254 256 164 271
1065 4 2 1 2 164 135 172 271
1066 4 2 1 2 138 142 252 274
1067 4 2 1 2 204 25 216 227
1068 4 2 1 2 210 66 217 276
1069 4 2 1 2 179 173 145 263
1070 4 2 1 2 209 7 63 80
1071 4 2 1 2 248 205 43 237
1072 4 2 1 2 93 103 56 269
1073 4 2 1 2 57 84 79 256
1074 4 2 1 2 126 125 109 261
1075 4 2 1 2 7 209 214 80
1076 4 2 1 2 150 196 153 264
1077 4 2 1 2 108 156 192 260
1078 4 2 1 2 218 197 224 265
1079 4 2 1 2 210 10 213 66
1080 4 2 1 2 170 171 266 267
1081 4 2 1 2 170 267 266 275
1082 4 2 1 2 104 77 76 254
1083 4 2 1 2 208 44 120 250
1084 4 2 1 2 16 84 55 266
1085 4 2 1 2 164 254 165 256
1086 4 2 1 2 202 116 169 273
1087 4 2 1 2 170 126 267 275
1088 4 2 1 2 176 117 177 255
1089 4 2 1 2 118 50 246 258
1090 4 2 1 2 110 183 48 251
1091 4 2 1 2 31 219 225 270
1092 4 2 1 2 245 235 242 255
1093 4 2 1 2 109 174 126 267
1094 4 2 1 2 33 217 123 276
1095 4 2 1 2 56 92 93 253
1096 4 2 1 2 225 32 119 276
1097 4 2 1 2 94 13 12 263
1098 4 2 1 2 241 70 236 258
1099 4 2 1 2 110 244 47 251
1100 4 2 1 2 79 267 104 275
1101 4 2 1 2 204 121 187 273
1102 4 2 1 2 146 153 198 264
1103 4 2 1 2 18 62 17 272
1104 4 2 1 2 203 272 181 276
1105 4 2 1 2 240 183 49 258
1106 4 2 1 2 67 14 98 260
1107 4 2 1 2 74 96 12 268
1108 4 2 1 2 145 128 131 263
1109 4 2 1 2 111 29 223 265
1110 4 2 1 2 81 66 220 270
1111 4 2 1 2 160 192 151 260
1112 4 2 1 2 213 1 18 66
1113 4 2 1 2 168 166 170 266
1114 4 2 1 2 134 136 253 262
1115 4 2 1 2 170 126 171 267
1116 4 2 1 2 16 79 84 266
1117 4 2 1 2 116 224 28 197
1118 4 2 1 2 74 97 96 259
1119 4 2 1 2 47 239 199 251
1120 4 2 1 2 120 43 205 237
1121 4 2 1 2 184 219 31 270
1122 4 2 1 2 235 245 239 255
1123 4 2 1 2 197 180 116 265
1124 4 2 1 2 76 254 77 271
1125 4 2 1 2 154 200 181 272
1126 4 2 1 2 159 134 163 253
1127 4 2 1 2 125 126 127 261
1128 4 2 1 2 176 110 199 255
1129 4 2 1 2 136 252 141 253
1130 4 2 1 2 54 105 93 269
1131 4 2 1 2 139 138 137 274
1132 4 2 1 2 123 203 181 276
1133 4 2 1 2 181 200 119 276
1134 4 2 1 2 32 220 228 276
1135 4 2 1 2 141 252 142 269
1136 4 2 1 2 25 216 121 204
1137 4 2 1 2 135 137 262 271
1138 4 2 1 2 208 120 178 268
1139 4 2 1 2 241 61 70 258
1140 4 2 1 2 172 165 164 254
1141 4 2 1 2 135 164 137 271
1142 4 2 1 2 138 162 142 274
1143 4 2 1 2 159 110 176 259
1144 4 2 1 2 14 99 98 260
1145 4 2 1 2 79 266 16 267
1146 4 2 1 2 15 14 77 261
1147 4 2 1 2 220 215 81 270
1148 4 2 1 2 134 135 136 262
1149 4 2 1 2 164 165 149 256
1150 4 2 1 2 130 170 166 275
1151 4 2 1 2 80 102 82 265
1152 4 2 1 2 79 266 267 275
1153 4 2 1 2 32 228 181 276
1154 4 2 1 2 175 187 121 273
1155 4 2 1 2 199 251 239 255
1156 4 2 1 2 199 239 245 255
1157 4 2 1 2 210 217 228 276
1158 4 2 1 2 238 231 61 234
1159 4 2 1 2 64 212 216 211
1160 4 2 1 2 232 65 233 237
1161 4 2 1 2 252 253 136 262
1162 4 2 1 2 81 66 210 220
1163 4 2 1 2 66 82 69 81
1164 4 2 1 2 198 182 118 257
1165 4 2 1 2 68 18 87 273
1166 4 2 1 2 155 183 190 257
1167 4 2 1 2 97 58 96 259
1168 4 2 1 2 93 92 54 253
1169 4 2 1 2 235 89 20 65
1170 4 2 1 2 97 88 58 257
1171 4 2 1 2 93 105 103 269
1172 4 2 1 2 168 170 171 266
1173 4 2 1 2 186 179 120 268
1174 4 2 1 2 172 130 165 254
1175 4 2 1 2 145 173 128 263
1176 4 2 1 2 170 130 127 275
1177 4 2 1 2 228 33 181 276
1178 4 2 1 2 96 58 95 259
1179 4 2 1 2 118 246 49 258
1180 4 2 1 2 61 2 11 234
1181 4 2 1 2 11 2 65 233
1182 4 2 1 2 53 77 83 271
1183 4 2 1 2 33 228 181 32
1184 4 2 1 2 81 69 66 270
1185 4 2 1 2 135 137 136 262
1186 4 2 1 2 249 182 50 51
1187 4 2 1 2 223 30 29 111
1188 4 2 1 2 216 26 25 121
1189 4 2 1 2 47 110 48 244
1190 4 2 1 2 174 171 126 267
1191 4 2 1 2 18 1 212 64
1192 4 2 1 2 140 164 149 256
1193 4 2 1 2 82 69 81 270
1194 4 2 1 2 43 120 44 237
1195 4 2 1 2 230 244 240 251
1196 4 2 1 2 199 46 245 239
1197 4 2 1 2 215 81 210 220
1198 4 2 1 2 123 181 33 276
1199 4 2 1 2 119 31 225 270
1200 4 2 1 2 70 236 23 61
1201 4 2 1 2 141 138 142 252
1202 4 2 1 2 92 13 94 263
1203 4 2 1 2 224 218 28 197
1204 4 2 1 2 13 92 91 263
1205 4 2 1 2 74 12 11 268
1206 4 2 1 2 17 87 18 273
1207 4 2 1 2 179 178 120 268
1208 4 2 1 2 12 105 95 264
1209 4 2 1 2 12 95 58 264
1210 4 2 1 2 110 47 199 251
1211 4 2 1 2 138 141 136 252
1212 4 2 1 2 181 119 32 276
1213 4 2 1 2 119 184 31 270
1214 4 2 1 2 15 79 16 267
1215 4 2 1 2 118 49 183 258
1216 4 2 1 2 46 245 117 255
1217 4 2 1 2 146 141 142 269
1218 4 2 1 2 28 27 224 116
1219 4 2 1 2 12 58 88 264
1220 4 2 1 2 60 71 72 258
1221 4 2 1 2 46 117 245 45
1222 4 2 1 2 101 74 11 268
1223 4 2 1 2 218 29 197 265
1224 4 2 1 2 138 139 162 274
1225 4 2 1 2 102 68 82 265
1226 4 2 1 2 199 245 46 255
1227 4 2 1 2 95 105 54 264
1228 4 2 1 2 101 100 74 255
1229 4 2 1 2 163 190 159 259
1230 4 2 1 2 24 61 231 234
1231 4 2 1 2 64 5 212 211
1232 4 2 1 2 65 19 232 233
1233 4 2 1 2 136 163 134 253
1234 4 2 1 2 163 136 141 253
1235 4 2 1 2 66 210 220 276
1236 4 2 1 2 86 17 62 272
1237 4 2 1 2 246 118 49 50
1238 4 2 1 2 154 181 203 272
1239 4 2 1 2 142 150 146 269
1240 4 2 1 2 190 110 159 259
1241 4 2 1 2 175 121 169 273
1242 4 2 1 2 79 15 104 267
1243 4 2 1 2 34 123 33 217
1244 4 2 1 2 78 77 14 261
1245 4 2 1 2 80 214 64 221
1246 4 2 1 2 61 236 23 231
1247 4 2 1 2 211 64 6 214
1248 4 2 1 2 232 235 20 65
1249 4 2 1 2 122 51 238 52
1250 4 2 1 2 197 111 180 265
1251 4 2 1 2 151 192 156 260
1252 4 2 1 2 111 197 29 265
1253 4 2 1 2 226 206 3 34
1254 4 2 1 2 183 257 118 258
1255 4 2 1 2 48 240 183 49
1256 4 2 1 2 201 153 196 264
1257 4 2 1 2 102 18 68 273
1258 4 2 1 2 77 53 76 271
1259 4 2 1 2 214 64 6 80
1260 4 2 1 2 30 31 184 219
1261 4 2 1 2 199 46 117 255
1262 4 2 1 2 225 32 31 119
1263 4 2 1 2 195 154 203 272
1264 4 2 1 2 220 270 66 276
1265 4 2 1 2 52 4 247 207
1266 4 2 1 2 228 220 210 276
1267 4 2 1 2 240 246 236 258
1268 4 2 1 2 183 155 118 257
1269 4 2 1 2 69 66 270 276
1270 4 2 1 2 204 3 25 227
1271 4 2 1 2 244 230 239 251
1272 4 2 1 2 4 248 205 43
1273 4 2 1 2 66 210 9 81
1274 4 2 1 2 198 118 155 257
1275 4 2 1 2 241 236 70 61
1276 4 2 1 2 121 202 169 273
1277 4 2 1 2 176 199 117 255
1278 4 2 1 2 27 26 229 202
1279 4 2 1 2 199 46 239 47
1280 4 2 1 2 208 45 44 250
1281 4 2 1 2 29 28 218 197
1282 4 2 1 2 60 72 11 88
1283 4 2 1 2 225 219 215 270
1284 4 2 1 2 95 12 54 105
1285 4 2 1 2 246 241 236 258
1286 4 2 1 2 213 10 1 66
1287 4 2 1 2 241 236 61 231
1288 4 2 1 2 211 64 214 221
1289 4 2 1 2 232 242 235 65
1290 4 2 1 2 220 225 215 270
1291 4 2 1 2 61 24 2 234
1292 4 2 1 2 212 1 5 64
1293 4 2 1 2 65 2 19 233
1294 4 2 1 2 63 8 7 209
1295 4 2 1 2 214 6 7 80
1296 4 2 1 2 21 22 59 230
1297 4 2 1 2 20 21 89 235
1298 4 2 1 2 210 9 10 66
1299 4 2 1 2 236 23 22 70
1300 4 2 1 2 81 9 8 215
1301 4 2 1 2 61 23 24 231
1302 4 2 1 2 6 5 64 211
1303 4 2 1 2 20 19 232 65
1304 4 2 1 2 95 253 155 54
1305 4 2 1 2 155 253 95 163
1306 4 2 1 2 258 88 182 72
1307 4 2 1 2 258 182 88 257
1308 4 2 1 2 57 152 16 85
1309 4 2 1 2 57 16 152 75
1310 4 2 1 2 251 59 240 230
1311 4 2 1 2 251 240 59 71
1312 4 2 1 2 99 161 160 192
1313 4 2 1 2 99 160 161 75
1314 4 2 1 2 161 99 108 192
1315 4 2 1 2 91 129 263 131
1316 4 2 1 2 91 263 129 78
1317 4 2 1 2 128 263 129 131
1318 4 2 1 2 128 129 263 78
1319 4 2 1 2 255 89 239 235
1320 4 2 1 2 255 96 268 177
1321 4 2 1 2 255 268 96 74
1322 4 2 1 2 65 242 255 101
1323 4 2 1 2 255 73 65 101
1324 4 2 1 2 65 73 255 89
1325 4 2 1 2 156 105 269 103
1326 4 2 1 2 156 269 105 196
1327 4 2 1 2 97 251 74 100
1328 4 2 1 2 97 74 251 259
1329 4 2 1 2 270 191 185 184
1330 4 2 1 2 270 185 191 62
1331 4 2 1 2 258 97 88 60
1332 4 2 1 2 258 88 97 257
1333 4 2 1 2 256 143 139 57
1334 4 2 1 2 256 139 143 140
1335 4 2 1 2 268 94 177 96
1336 4 2 1 2 268 177 94 263
1337 4 2 1 2 35 247 11 243
1338 4 2 1 2 35 11 247 207
1339 4 2 1 2 263 133 92 131
1340 4 2 1 2 263 92 133 94
1341 4 2 1 2 116 265 167 68
1342 4 2 1 2 116 167 265 180
1343 4 2 1 2 87 167 265 68
1344 4 2 1 2 87 265 167 180
1345 4 2 1 2 63 219 223 82
1346 4 2 1 2 223 219 63 209
1347 4 2 1 2 223 265 63 82
1348 4 2 1 2 75 99 108 161
1349 4 2 1 2 108 99 75 15
1350 4 2 1 2 108 194 75 161
1351 4 2 1 2 75 194 108 15
1352 4 2 1 2 62 276 18 69
1353 4 2 1 2 18 276 62 272
1354 4 2 1 2 273 212 227 216
1355 4 2 1 2 273 227 212 18
1356 4 2 1 2 11 61 238 72
1357 4 2 1 2 238 61 11 234
1358 4 2 1 2 61 249 241 231
1359 4 2 1 2 251 89 255 73
1360 4 2 1 2 251 255 89 239
1361 4 2 1 2 275 165 84 166
1362 4 2 1 2 275 84 165 254
1363 4 2 1 2 262 56 91 90
1364 4 2 1 2 262 91 56 253
1365 4 2 1 2 273 167 168 87
1366 4 2 1 2 273 168 167 169
1367 4 2 1 2 274 151 160 162
1368 4 2 1 2 274 160 151 260
1369 4 2 1 2 238 207 52 247
1370 4 2 1 2 52 207 238 122
1371 4 2 1 2 217 206 34 123
1372 4 2 1 2 217 34 206 226
1373 4 2 1 2 65 235 255 242
1374 4 2 1 2 65 255 235 89
1375 4 2 1 2 258 61 249 241
1376 4 2 1 2 258 249 61 72
1377 4 2 1 2 63 223 80 265
1378 4 2 1 2 80 223 63 209
1379 4 2 1 2 80 214 218 209
1380 4 2 1 2 223 218 80 265
1381 4 2 1 2 80 218 223 209
1382 4 2 1 2 218 80 224 214
1383 4 2 1 2 224 80 218 265
$EndElements
